# xmcd
# Track frame offsets:
# 150
# 20140
# 31920
# 47924
# 56767
# 72026
# 91542
# 106085
# 117971
# 136871
# 149076
# 163215
# 176980
# 198120
#
# Disc length: 2789 seconds
# Revision: 0
# Processed by: cddbd v1.5.1PL2 Copyright (c) Steve Scherf et al.
# Submitted via: VisiTrax 2.9.10.228 - For more info visit www.synapsa.com
#
DISCID=c50ae30e
DTITLE=David Allen Coe - ULTIMATE COLLECTION cd 1
DYEAR=2005
DGENRE=
TTITLE0=A Satisfied Mind
TTITLE1=Ruby,Don´t Take Your Love To Town
TTITLE2=Give my Love to Rose
TTITLE3=Fuzzy Was an Outlaw
TTITLE4=Mary Magdeline
TTITLE5=The Old Time Feeling
TTITLE6=Why me
TTITLE7=Got you on my Mind
TTITLE8=You can Always Come Back To me
TTITLE9=Mississippi Woman
TTITLE10=Ride Me Down Easy
TTITLE11=Why you been gone so long
TTITLE12=Irish Lullabye
TTITLE13=West Viginia Man
EXTD=+ 3 vidio clips
EXTT0=
EXTT1=
EXTT2=
EXTT3=
EXTT4=
EXTT5=
EXTT6=
EXTT7=
EXTT8=
EXTT9=
EXTT10=
EXTT11=
EXTT12=
EXTT13=
PLAYORDER=
